<svg width="32px" height="32px" viewBox="0 0 32 32" version="1.1" xmlns="http://www.w3.org/2000/svg" xmlns:xlink="http://www.w3.org/1999/xlink">
    <g id="排课" stroke="none" stroke-width="1" fill="none" fill-rule="evenodd">
        <g id="排课-icon" transform="translate(-608.000000, -616.000000)">
            <g id="编组-78备份-2" transform="translate(592.000000, 600.000000)">
                <g id="常用功能/模块">
                    <g id="编组-48">
                        <g id="编组" transform="translate(16.000000, 16.000000)">
                            <g id="常用功能/icon/排课">
                                <g id="编组-49">
                                    <g id="编组-108">
                                        <rect id="矩形" x="0" y="0" width="32" height="32"></rect>
                                        <g id="编组-10" transform="translate(2.000000, 2.000000)">
                                            <path d="M0,7.25925926 L28,7.25925926 L28,24 C28,26.209139 26.209139,28 24,28 L4,28 C1.790861,28 2.705415e-16,26.209139 0,24 L0,7.25925926 L0,7.25925926 Z" id="矩形" fill="#2C83FF"></path>
                                            <path d="M4,0 L24,0 C26.209139,-4.05812251e-16 28,1.790861 28,4 L28,5.14133085 L28,5.14133085 L0,5.14133085 L0,4 C-2.705415e-16,1.790861 1.790861,4.05812251e-16 4,0 Z" id="矩形" fill="#2C83FF" opacity="0.403037"></path>
                                            <g id="编组-8" transform="translate(5.185185, 12.444444)" fill="#FFFFFF" fill-rule="nonzero">
                                                <g id="编组-7">
                                                    <g id="编组-9">
                                                        <path d="M19.4608673,3.10030006 C19.2989763,2.93840903 19.0561397,2.85746352 18.8133032,2.85746352 C18.5704667,2.85746352 18.3276301,2.93840903 18.1657391,3.10030006 L14.5231911,6.74284804 L13.3090085,5.52866538 C13.1471175,5.36677436 12.9042809,5.28582885 12.6614444,5.28582885 C12.4186079,5.28582885 12.1757713,5.36677436 12.0138803,5.52866538 C11.6900983,5.85244742 11.6900983,6.419066 12.0138803,6.74284804 L13.8756271,8.60459479 C14.0375181,8.76648581 14.2803546,8.84743132 14.5231911,8.84743132 C14.7660277,8.84743132 15.0088642,8.76648581 15.1707552,8.60459479 L19.4608673,4.31448272 C19.6227583,4.1525917 19.7037038,3.90975516 19.7037038,3.66691863 C19.7037038,3.4240821 19.6227583,3.26219108 19.4608673,3.10030006 L19.4608673,3.10030006 Z" id="形状" stroke="#FFFFFF" stroke-width="0.4"></path>
                                                        <path d="M6.00563458,1.80169037 C6.00563458,2.79673649 6.81227883,3.60338075 7.80732495,3.60338075 C8.80237107,3.60338075 9.60901532,2.79673649 9.60901532,1.80169037 C9.60901532,0.806644256 8.80237107,3.70273708e-14 7.80732495,3.70273708e-14 C6.81227883,3.70273708e-14 6.00563458,0.806644256 6.00563458,1.80169037 L6.00563458,1.80169037 Z" id="路径"></path>
                                                        <path d="M1.80169037,5.76540919 C0.840788841,5.76540919 6.92629642e-13,6.60619803 6.92629642e-13,7.56709957 C6.92629642e-13,8.5280011 0.840788841,9.36878994 1.80169037,9.36878994 C2.76259191,9.36878994 3.60338075,8.5280011 3.60338075,7.56709957 C3.60338075,6.60619803 2.76259191,5.76540919 1.80169037,5.76540919 Z M7.80732495,5.76540919 C6.84642342,5.76540919 6.00563458,6.60619803 6.00563458,7.56709957 C6.00563458,8.5280011 6.84642342,9.36878994 7.80732495,9.36878994 C8.76822648,9.36878994 9.60901532,8.5280011 9.60901532,7.56709957 C9.60901532,6.60619803 8.76822648,5.76540919 7.80732495,5.76540919 Z" id="形状"></path>
                                                        <path d="M3.70273708e-14,1.80169037 C3.70273708e-14,2.79673649 0.806644256,3.60338075 1.80169037,3.60338075 C2.79673649,3.60338075 3.60338075,2.79673649 3.60338075,1.80169037 C3.60338075,0.806644256 2.79673649,3.70273708e-14 1.80169037,3.70273708e-14 C0.806644256,3.70273708e-14 3.70273708e-14,0.806644256 3.70273708e-14,1.80169037 L3.70273708e-14,1.80169037 Z" id="路径"></path>
                                                    </g>
                                                </g>
                                            </g>
                                        </g>
                                    </g>
                                </g>
                            </g>
                        </g>
                    </g>
                </g>
            </g>
        </g>
    </g>
</svg>