<svg width="32px" height="32px" viewBox="0 0 32 32" version="1.1" xmlns="http://www.w3.org/2000/svg" xmlns:xlink="http://www.w3.org/1999/xlink">
    <title>常用功能/icon/咨询记录</title>
    <g id="班级" stroke="none" stroke-width="1" fill="none" fill-rule="evenodd">
        <g id="班级-icon" transform="translate(-608.000000, -688.000000)">
            <g id="编组-3" transform="translate(216.000000, 672.000000)">
                <g id="编组-78备份-6" transform="translate(376.000000, 0.000000)">
                    <g id="常用功能/模块">
                        <g id="编组-48">
                            <g id="编组" transform="translate(15.000000, 16.000000)">
                                <g id="常用功能/icon/班级" transform="translate(1.000000, 0.000000)">
                                    <g id="编组-2" transform="translate(-1.000000, 0.000000)">
                                        <g id="编组-114">
                                            <g id="编组-115">
                                                <rect id="矩形" x="0" y="0" width="33" height="33"></rect>
                                                <g id="编组-45" transform="translate(17.531250, 12.375000)" fill="#FF8A31" fill-opacity="0.399851" fill-rule="nonzero">
                                                    <g id="编组-26备份-2" transform="translate(0.937500, 0.406250)">
                                                        <g id="编组">
                                                            <path d="M4.06941809,16.6885151 C1.72652168,16.6563111 1.89182003e-13,16.4905284 1.89182003e-13,15.471317 L1.89182003e-13,15.471317 L1.89182003e-13,15.1235462 C1.89182003e-13,12.6345478 1.72217668,10.5401893 4.06289623,9.92115494 C4.47710791,9.75098276 4.98994924,9.73663797 5.07289853,9.73543735 L9.06146271,9.73543735 C9.14428023,9.73663606 9.65562505,9.75093722 10.0689037,9.92155625 C12.4108617,10.5385809 14.1343612,12.6335921 14.1343612,15.1235462 L14.1343612,15.471317 C14.1343612,16.490605 12.4075802,16.656336 10.0620808,16.683283 L10.0649432,16.6885151 L4.06941809,16.6885151 Z M7.09676976,-9.66338121e-13 C9.44927152,-9.66338121e-13 11.3552803,1.86786621 11.3552803,4.17212878 C11.3552803,6.47639134 9.44814967,8.34425757 7.09676976,8.34425757 L7.067,8.343 L7.03759148,8.34425757 C4.75746551,8.34425757 2.89507252,6.58788014 2.784294,4.38036516 L2.7790809,4.17212878 C2.7790809,1.86786621 4.68508972,-9.66338121e-13 7.03759148,-9.66338121e-13 C7.04762724,-9.66338121e-13 7.0576549,3.4025238e-05 7.06767432,0.000101964423 L7.09676976,-9.66338121e-13 L7.09676976,-9.66338121e-13 Z" id="形状结合"></path>
                                                        </g>
                                                    </g>
                                                </g>
                                            </g>
                                        </g>
                                        <g id="编组-114" transform="translate(1.064516, 3.193548)" fill="#FF8A31" fill-rule="nonzero" stroke="#FFFFFF" stroke-width="1.2">
                                            <g id="编组-115">
                                                <g id="编组-45">
                                                    <g id="编组">
                                                        <path d="M5.10080645,7.15392977 C5.10080645,3.20282145 8.36903089,-8.02913291e-14 12.4009311,-8.02913291e-14 C16.4347549,-8.02913291e-14 19.7029793,3.20282149 19.7029793,7.15392977 C19.7029793,11.105038 16.4328313,14.3078596 12.4009311,14.3078596 C8.36903093,14.3078596 5.10080645,11.1050381 5.10080645,7.15392977 Z M23.5873331,21.7284065 C21.1367797,15.2307331 15.7861104,15.1730439 15.7861104,15.1730439 C15.7861104,15.1730439 13.6679042,15.1730439 9.43149175,15.1730439 C4.22233824,15.1730439 0,19.8452168 0,24.9485714 L0,25.5448925 C0,27.6320164 4.22233824,27.6320164 9.43149175,27.6320164 L17.2583111,27.6320164 L20.9504268,27.6320164 C22.6072799,27.6320145 23.9504248,26.2888696 23.9504248,24.6320164 C23.9504248,24.6010077 23.949944,24.5700009 23.9489827,24.5390071 C23.9072609,23.1939267 23.786711,22.2570598 23.5873331,21.7284065 Z" id="形状"></path>
                                                    </g>
                                                </g>
                                            </g>
                                        </g>
                                    </g>
                                </g>
                            </g>
                        </g>
                    </g>
                </g>
            </g>
        </g>
    </g>
</svg>