<svg width="32px" height="32px" viewBox="0 0 32 32" version="1.1" xmlns="http://www.w3.org/2000/svg" xmlns:xlink="http://www.w3.org/1999/xlink">
    <g id="课程" stroke="none" stroke-width="1" fill="none" fill-rule="evenodd">
        <g id="课程-icon" transform="translate(-608.000000, -1409.000000)">
            <g id="编组-3备份-10" transform="translate(216.000000, 1393.000000)">
                <g id="常用功能/模块备份-2" transform="translate(376.000000, 0.000000)">
                    <g id="编组-48">
                        <g id="编组" transform="translate(16.000000, 16.000000)">
                            <g id="常用功能/icon/课程">
                                <g id="编组-49备份">
                                    <g id="编组-108">
                                        <rect id="矩形" x="0" y="0" width="32" height="32"></rect>
                                    </g>
                                </g>
                                <g id="编组" transform="translate(2.000000, 1.000000)">
                                    <g id="编组-2" transform="translate(0.684524, 0.629762)">
                                        <g id="编组-5">
                                            <g id="编组-7" transform="translate(0.000000, 0.000000)">
                                                <path d="M3.76457093,4.00818979e-14 L18.8226997,4.00818979e-14 C22.9808408,4.00818979e-14 26.3516865,3.37084573 26.3516865,7.52898686 L26.3516865,20.6828187 C26.3516865,24.8409598 22.9808408,28.2118056 18.8226997,28.2118056 L3.76457093,28.2118056 C1.68542287,28.2118056 -7.10542736e-13,26.5263827 -7.10542736e-13,24.4472346 L-7.10542736e-13,3.76457093 C-7.10542736e-13,1.68542287 1.68542287,4.00818979e-14 3.76457093,4.00818979e-14 Z" id="路径" fill="#586BFF" fill-rule="nonzero"></path>
                                                <rect id="形状" fill="#FFFFFF" fill-rule="nonzero" x="3.44436813" y="11.702152" width="7.17948718" height="2.13333333" rx="1"></rect>
                                                <rect id="形状备份" fill="#FFFFFF" fill-rule="nonzero" x="3.44436813" y="16.8713828" width="11.2820513" height="2.13333333" rx="1"></rect>
                                                <path d="M13.7007784,0 L20.1007784,0 L20.1007784,6.367468 C20.1007784,6.91975275 19.6530631,7.367468 19.1007784,7.367468 C18.9080924,7.367468 18.7195095,7.31179946 18.5577129,7.20715833 L16.9007784,6.13554427 L16.9007784,6.13554427 L15.2438439,7.20715833 C14.7800957,7.50708513 14.1610149,7.37428167 13.8610881,6.91053351 C13.7564469,6.74873693 13.7007784,6.56015401 13.7007784,6.367468 L13.7007784,0 L13.7007784,0 Z" id="矩形" fill="#DEE2FF"></path>
                                            </g>
                                        </g>
                                    </g>
                                </g>
                            </g>
                        </g>
                    </g>
                </g>
            </g>
        </g>
    </g>
</svg>