<svg width="32px" height="32px" viewBox="0 0 32 32" version="1.1" xmlns="http://www.w3.org/2000/svg" xmlns:xlink="http://www.w3.org/1999/xlink">
    <g id="学员" stroke="none" stroke-width="1" fill="none" fill-rule="evenodd">
        <g id="学员-icon" transform="translate(-232.000000, -1337.000000)">
            <g id="编组-3备份-9" transform="translate(216.000000, 1321.000000)">
                <g id="常用功能/模块">
                    <g id="编组-48">
                        <g id="编组" transform="translate(16.000000, 16.000000)">
                            <g id="常用功能/icon/学员">
                                <g id="编组-114" transform="translate(3.000000, 1.000000)">
                                    <g id="编组-115">
                                        <g id="编组-45">
                                            <g id="编组">
                                                <path d="M6.255,10.4979869 C6.255,6.48940794 9.57076224,3.24 13.6613083,3.24 C17.7538059,3.24 21.0695681,6.48940799 21.0695681,10.4979869 C21.0695681,14.5065659 17.7518543,17.7559739 13.6613083,17.7559739 C9.57076229,17.7559739 6.255,14.5065659 6.255,10.4979869 Z M25.0104215,25.2844561 C22.5242238,18.692271 17.0957266,18.6337427 17.0957266,18.6337427 C17.0957266,18.6337427 14.9467101,18.6337427 10.6486771,18.6337427 C5.36375407,18.6337427 1.08,23.3738745 1.08,28.5514597 L1.08,29.1564546 C1.08,31.2739367 5.36375407,31.2739367 10.6486771,31.2739367 L18.5893411,31.2739367 L22.3801426,31.2739367 C24.036991,31.2739261 25.3801321,29.9307851 25.3801321,28.2739367 C25.3801321,28.2445667 25.3797008,28.2151983 25.3788383,28.185841 C25.3379618,26.7944409 25.2151562,25.8273126 25.0104215,25.2844561 Z" id="形状" stroke="#FFFFFF" stroke-width="1.2" fill="#3D8AFF" fill-rule="nonzero"></path>
                                                <path d="M1.74174553,4.37810414 L13.3923862,1.15467374 C13.5689224,1.10583075 13.7554826,1.10641312 13.9317105,1.15635728 L25.3026024,4.37894591 C25.5682813,4.45424111 25.7226177,4.73065519 25.6473225,4.99633402 C25.6000118,5.16326961 25.469538,5.2937434 25.3026024,5.34105409 L13.9317105,8.56364272 C13.7554826,8.61358688 13.5689224,8.61416925 13.3923862,8.56532626 L1.74174553,5.34189586 C1.4756018,5.26826078 1.3195427,4.99281564 1.39317777,4.7266719 C1.44003834,4.5573009 1.57237453,4.42496471 1.74174553,4.37810414 Z" id="矩形" stroke="#FFFFFF" fill="#FFFFFF"></path>
                                                <path d="M1.74174553,3.29810414 L13.3923862,0.0746737409 C13.5689224,0.0258307544 13.7554826,0.0264131169 13.9317105,0.0763572837 L25.3026024,3.29894591 C25.5682813,3.37424111 25.7226177,3.65065519 25.6473225,3.91633402 C25.6000118,4.08326961 25.469538,4.2137434 25.3026024,4.26105409 L13.9317105,7.48364272 C13.7554826,7.53358688 13.5689224,7.53416925 13.3923862,7.48532626 L1.74174553,4.26189586 C1.4756018,4.18826078 1.3195427,3.91281564 1.39317777,3.6466719 C1.44003834,3.4773009 1.57237453,3.34496471 1.74174553,3.29810414 Z" id="矩形" fill="#B1D0FF"></path>
                                                <rect id="矩形" fill="#B1D0FF" x="22.68" y="3.24" width="1.62" height="5.4" rx="0.81"></rect>
                                            </g>
                                        </g>
                                    </g>
                                </g>
                            </g>
                        </g>
                    </g>
                </g>
            </g>
        </g>
    </g>
</svg>