<svg x="0" y="0" width="60" height="71.70266595588026" filtersec="colorsb6167353497" class="image-svg-svg primary"><svg xmlns="http://www.w3.org/2000/svg" viewBox="0 0 70.8 84.56"><title>资源 206</title><path d="M70.79 34.67a35.11 35.11 0 0 1-2.34 13.2c-1 2.47-1.3 2.55-3.16.71-3.85-3.81-7.73-7.58-11.48-11.48-1.33-1.39-2.16-1.52-3.57-.06-4.27 4.44-8.73 8.69-13 13.11-1.32 1.36-2.21 1.67-3.56.07s-3.16-3-4.53-4.64c-1.55-1.88-2.62-1.5-4.15.09-4.21 4.38-8.64 8.55-12.84 12.94-1.48 1.56-2.28 1.21-3.49-.2A35.54 35.54 0 0 1 4 18.93C11 5.7 24.58-1.37 40 .22c13.62 1.41 25.76 11.89 29.57 25.6a30.41 30.41 0 0 1 1.22 8.85z" fill="#1a88fd"></path><path d="M60.11 59.69a1.9 1.9 0 0 1-.83 1.65q-11.2 11.2-22.42 22.4c-1 1-1.85 1.13-2.93 0q-7-7.11-14.13-14.11c-1-1-.94-1.74.06-2.69 2-1.89 3.94-3.82 5.82-5.82 1.06-1.11 1.87-1.07 2.89 0 1.72 1.81 3.6 3.47 5.26 5.33 1.2 1.34 2 1.18 3.21 0C41.4 62 45.9 57.67 50.23 53.18c1.37-1.42 2.33-1.47 3.65 0 1.63 1.78 3.4 3.42 5.09 5.14a16.46 16.46 0 0 1 1.14 1.37z" fill="#37ecb2"></path></svg></svg>